<?xml version="1.0" encoding="utf-8"?>
<!-- Generator: Adobe Illustrator 12.0.0, SVG Export Plug-In . SVG Version: 6.00 Build 51448)  -->
<!DOCTYPE svg PUBLIC "-//W3C//DTD SVG 1.1//EN" "http://www.w3.org/Graphics/SVG/1.1/DTD/svg11.dtd" [
	<!ENTITY ns_svg "http://www.w3.org/2000/svg">
	<!ENTITY ns_xlink "http://www.w3.org/1999/xlink">
]>
<svg  version="1.1" id="BTN_Install" xmlns="&ns_svg;" xmlns:xlink="&ns_xlink;" width="60" height="16" viewBox="0 0 60 16"
	 overflow="visible" enable-background="new 0 0 60 16" xml:space="preserve">
<rect fill="#007940" width="60" height="16"/>
<g>
	<path fill="#FFFFFF" d="M16.121,12.37h-1.436V3.965h1.436V12.37z"/>
	<path fill="#FFFFFF" d="M23.381,12.37h-1.359V8.99c0-1.121-0.396-1.681-1.189-1.681c-0.414,0-0.756,0.155-1.026,0.466
		c-0.269,0.311-0.404,0.701-0.404,1.174v3.421h-1.365V6.371h1.365v0.996h0.023c0.45-0.758,1.098-1.137,1.945-1.137
		c0.653,0,1.151,0.213,1.495,0.637c0.343,0.423,0.516,1.035,0.516,1.836V12.37z"/>
	<path fill="#FFFFFF" d="M24.664,12.183v-1.257c0.508,0.387,1.069,0.578,1.682,0.578c0.82,0,1.23-0.242,1.23-0.726
		c0-0.138-0.035-0.254-0.105-0.349c-0.07-0.095-0.164-0.182-0.283-0.256c-0.119-0.074-0.26-0.141-0.422-0.199
		c-0.162-0.059-0.344-0.126-0.543-0.199c-0.246-0.098-0.467-0.202-0.664-0.311c-0.198-0.109-0.361-0.232-0.492-0.371
		c-0.131-0.139-0.231-0.296-0.297-0.472c-0.067-0.176-0.1-0.381-0.1-0.616c0-0.29,0.069-0.543,0.205-0.764
		c0.137-0.221,0.32-0.406,0.551-0.557c0.23-0.15,0.492-0.263,0.785-0.339S26.807,6.23,27.12,6.23c0.555,0,1.051,0.084,1.487,0.254
		v1.191c-0.421-0.292-0.906-0.438-1.453-0.438c-0.172,0-0.326,0.017-0.465,0.053c-0.139,0.035-0.258,0.084-0.355,0.146
		C26.236,7.5,26.16,7.576,26.106,7.665c-0.055,0.087-0.083,0.183-0.083,0.288c0,0.129,0.027,0.239,0.083,0.329
		c0.054,0.089,0.136,0.17,0.244,0.238s0.236,0.131,0.387,0.188c0.15,0.057,0.322,0.117,0.517,0.184
		c0.258,0.105,0.49,0.212,0.695,0.321c0.205,0.11,0.379,0.236,0.523,0.374c0.145,0.139,0.256,0.299,0.334,0.48
		c0.078,0.182,0.116,0.396,0.116,0.646c0,0.307-0.069,0.571-0.21,0.799c-0.141,0.226-0.328,0.413-0.563,0.562
		s-0.504,0.259-0.811,0.333c-0.307,0.071-0.631,0.106-0.97,0.106C25.713,12.512,25.145,12.402,24.664,12.183z"/>
	<path fill="#FFFFFF" d="M33.378,12.305c-0.267,0.133-0.616,0.199-1.05,0.199c-1.165,0-1.745-0.557-1.745-1.674V7.441H29.58v-1.07
		h1.003V4.984l1.359-0.387v1.773h1.436v1.07h-1.436v2.996c0,0.355,0.064,0.609,0.192,0.759c0.129,0.153,0.344,0.229,0.646,0.229
		c0.229,0,0.429-0.066,0.598-0.203V12.305z"/>
	<path fill="#FFFFFF" d="M39.154,12.37h-1.318v-0.938h-0.022c-0.415,0.721-1.021,1.079-1.823,1.079c-0.59,0-1.051-0.16-1.384-0.481
		c-0.336-0.319-0.504-0.743-0.504-1.271c0-1.133,0.652-1.792,1.958-1.98l1.781-0.251c0-0.854-0.407-1.282-1.218-1.282
		c-0.715,0-1.36,0.246-1.934,0.739V6.795c0.632-0.377,1.361-0.564,2.191-0.564c1.514,0,2.272,0.746,2.272,2.238V12.37z
		 M37.842,9.426l-1.26,0.176c-0.391,0.05-0.683,0.146-0.881,0.285c-0.196,0.136-0.297,0.38-0.297,0.729
		c0,0.254,0.092,0.462,0.273,0.623s0.423,0.242,0.729,0.242c0.414,0,0.757-0.145,1.028-0.436c0.272-0.291,0.407-0.656,0.407-1.097
		V9.426z"/>
	<path fill="#FFFFFF" d="M42.178,12.37h-1.364V3.488h1.364V12.37z"/>
	<path fill="#FFFFFF" d="M45.313,12.37h-1.365V3.488h1.365V12.37z"/>
</g>
</svg>
