<?xml version="1.0" encoding="utf-8"?>
<!-- Generator: Adobe Illustrator 12.0.0, SVG Export Plug-In . SVG Version: 6.00 Build 51448)  -->
<!DOCTYPE svg PUBLIC "-//W3C//DTD SVG 1.1//EN" "http://www.w3.org/Graphics/SVG/1.1/DTD/svg11.dtd" [
	<!ENTITY ns_svg "http://www.w3.org/2000/svg">
	<!ENTITY ns_xlink "http://www.w3.org/1999/xlink">
]>
<svg  version="1.1" id="VSCode_logo" xmlns="&ns_svg;" xmlns:xlink="&ns_xlink;" width="11.97" height="11.908"
	 viewBox="0 0 11.97 11.908" overflow="visible" enable-background="new 0 0 11.97 11.908" xml:space="preserve">
<path fill="#040000" d="M11.546,1.26L9.083,0.074C8.796-0.063,8.457-0.005,8.232,0.219L3.514,4.522l-2.056-1.56
	C1.268,2.818,1,2.83,0.822,2.991l-0.659,0.6c-0.204,0.185-0.219,0.5-0.033,0.704c0.01,0.012,0.021,0.023,0.033,0.033l1.782,1.626
	L0.163,7.58C-0.041,7.766-0.056,8.081,0.13,8.285c0.01,0.011,0.021,0.022,0.033,0.032l0.66,0.6C1.001,9.078,1.268,9.09,1.459,8.945
	l2.055-1.561l4.719,4.305c0.224,0.225,0.564,0.282,0.85,0.145l2.465-1.186c0.259-0.125,0.423-0.388,0.423-0.674V1.934
	C11.97,1.646,11.805,1.384,11.546,1.26z M8.98,8.671L5.4,5.954l3.58-2.717V8.671z"/>
</svg>
